<svg width="74" height="70" viewBox="0 0 74 70" fill="none" xmlns="http://www.w3.org/2000/svg">
<path fill-rule="evenodd" clip-rule="evenodd" d="M74 33C74 50.8802 57.4333 65.375 37 65.375C33.3354 65.3799 29.686 64.9041 26.1451 63.9598C23.4441 65.3288 17.242 67.9557 6.808 69.667C5.883 69.815 5.18 68.853 5.54537 67.9928C7.18262 64.1263 8.66263 58.974 9.10662 54.275C3.441 48.5863 0 41.14 0 33C0 15.1198 16.5667 0.625 37 0.625C57.4333 0.625 74 15.1198 74 33ZM23.125 33C23.125 34.2266 22.6377 35.403 21.7704 36.2704C20.903 37.1377 19.7266 37.625 18.5 37.625C17.2734 37.625 16.097 37.1377 15.2296 36.2704C14.3623 35.403 13.875 34.2266 13.875 33C13.875 31.7734 14.3623 30.597 15.2296 29.7296C16.097 28.8623 17.2734 28.375 18.5 28.375C19.7266 28.375 20.903 28.8623 21.7704 29.7296C22.6377 30.597 23.125 31.7734 23.125 33ZM41.625 33C41.625 34.2266 41.1377 35.403 40.2704 36.2704C39.403 37.1377 38.2266 37.625 37 37.625C35.7734 37.625 34.597 37.1377 33.7296 36.2704C32.8623 35.403 32.375 34.2266 32.375 33C32.375 31.7734 32.8623 30.597 33.7296 29.7296C34.597 28.8623 35.7734 28.375 37 28.375C38.2266 28.375 39.403 28.8623 40.2704 29.7296C41.1377 30.597 41.625 31.7734 41.625 33ZM55.5 37.625C56.7266 37.625 57.903 37.1377 58.7704 36.2704C59.6377 35.403 60.125 34.2266 60.125 33C60.125 31.7734 59.6377 30.597 58.7704 29.7296C57.903 28.8623 56.7266 28.375 55.5 28.375C54.2734 28.375 53.097 28.8623 52.2296 29.7296C51.3623 30.597 50.875 31.7734 50.875 33C50.875 34.2266 51.3623 35.403 52.2296 36.2704C53.097 37.1377 54.2734 37.625 55.5 37.625Z" fill="#7749F8"/>
</svg>
