<svg width="84" height="96" viewBox="0 0 84 96" fill="none" xmlns="http://www.w3.org/2000/svg">
<path d="M25.8462 35.2C26.703 35.2 27.5248 35.5371 28.1307 36.1373C28.7365 36.7374 29.0769 37.5513 29.0769 38.4V76.8C29.0769 77.6487 28.7365 78.4626 28.1307 79.0627C27.5248 79.6629 26.703 80 25.8462 80C24.9893 80 24.1675 79.6629 23.5617 79.0627C22.9558 78.4626 22.6154 77.6487 22.6154 76.8V38.4C22.6154 37.5513 22.9558 36.7374 23.5617 36.1373C24.1675 35.5371 24.9893 35.2 25.8462 35.2ZM42 35.2C42.8569 35.2 43.6786 35.5371 44.2845 36.1373C44.8904 36.7374 45.2308 37.5513 45.2308 38.4V76.8C45.2308 77.6487 44.8904 78.4626 44.2845 79.0627C43.6786 79.6629 42.8569 80 42 80C41.1431 80 40.3214 79.6629 39.7155 79.0627C39.1096 78.4626 38.7692 77.6487 38.7692 76.8V38.4C38.7692 37.5513 39.1096 36.7374 39.7155 36.1373C40.3214 35.5371 41.1431 35.2 42 35.2ZM61.3846 38.4C61.3846 37.5513 61.0442 36.7374 60.4383 36.1373C59.8325 35.5371 59.0107 35.2 58.1538 35.2C57.297 35.2 56.4752 35.5371 55.8693 36.1373C55.2635 36.7374 54.9231 37.5513 54.9231 38.4V76.8C54.9231 77.6487 55.2635 78.4626 55.8693 79.0627C56.4752 79.6629 57.297 80 58.1538 80C59.0107 80 59.8325 79.6629 60.4383 79.0627C61.0442 78.4626 61.3846 77.6487 61.3846 76.8V38.4Z" fill="white"/>
<path fill-rule="evenodd" clip-rule="evenodd" d="M84 19.2C84 20.8974 83.3192 22.5253 82.1075 23.7255C80.8957 24.9257 79.2522 25.6 77.5385 25.6H74.3077V83.2C74.3077 86.5948 72.9462 89.8505 70.5226 92.251C68.0991 94.6514 64.812 96 61.3846 96H22.6154C19.188 96 15.9009 94.6514 13.4774 92.251C11.0538 89.8505 9.69231 86.5948 9.69231 83.2V25.6H6.46154C4.74783 25.6 3.10431 24.9257 1.89254 23.7255C0.680767 22.5253 0 20.8974 0 19.2V12.8C0 11.1026 0.680767 9.47475 1.89254 8.27452C3.10431 7.07428 4.74783 6.4 6.46154 6.4H29.0769C29.0769 4.70261 29.7577 3.07475 30.9695 1.87452C32.1812 0.674284 33.8248 0 35.5385 0H48.4615C50.1752 0 51.8188 0.674284 53.0305 1.87452C54.2423 3.07475 54.9231 4.70261 54.9231 6.4H77.5385C79.2522 6.4 80.8957 7.07428 82.1075 8.27452C83.3192 9.47475 84 11.1026 84 12.8V19.2ZM16.9163 25.6L16.1538 25.9776V83.2C16.1538 84.8974 16.8346 86.5253 18.0464 87.7255C19.2582 88.9257 20.9017 89.6 22.6154 89.6H61.3846C63.0983 89.6 64.7418 88.9257 65.9536 87.7255C67.1654 86.5253 67.8462 84.8974 67.8462 83.2V25.9776L67.0837 25.6H16.9163ZM6.46154 19.2V12.8H77.5385V19.2H6.46154Z" fill="white"/>
</svg>
